<svg xmlns="http://www.w3.org/2000/svg" style="display:none">
  <!-- Arrow Left -->
  <symbol id="icon-arrow-left" viewBox="0 0 24 24" fill="none" stroke="currentColor" stroke-width="2">
    <path d="M19 12H5M12 19l-7-7 7-7"/>
  </symbol>
  
  <!-- Chevron Down -->
  <symbol id="icon-chevron-down" viewBox="0 0 24 24" fill="none" stroke="currentColor" stroke-width="2">
    <path d="M6 9l6 6 6-6"/>
  </symbol>
  
  <!-- QR Code -->
  <symbol id="icon-qrcode" viewBox="0 0 24 24" fill="currentColor">
    <path d="M3 11h8V3H3v8zm2-6h4v4H5V5zm8 0h2V3h-2v2zm4 0V3h2v2h-2zM3 21h8v-8H3v8zm2-6h4v4H5v-4zm8 0h2v-2h-2v2zm4 4h2v-2h-2v2zm-4 0v2h2v-2h-2zm4-4h2v-2h-2v2zm0 4v2h2v-2h-2zM13 3v2h2V3h-2zm4 4v2h2V7h-2z"/>
  </symbol>
  
  <!-- Trophy -->
  <symbol id="icon-trophy" viewBox="0 0 24 24" fill="currentColor">
    <path d="M6 3h12v5c0 3.3-2.7 6-6 6s-6-2.7-6-6V3zm2 2v3c0 2.2 1.8 4 4 4s4-1.8 4-4V5H8zM4 5h2v3H4V5zm14 0h2v3h-2V5zm-6 10c2.2 0 4-.9 4-2h2c0 1.9-1.6 3.4-3.5 3.9V19h3v2H8v-2h3v-2.1C9.6 16.4 8 14.9 8 13h2c0 1.1 1.8 2 4 2z"/>
  </symbol>
  
  <!-- Brain -->
  <symbol id="icon-brain" viewBox="0 0 24 24" fill="currentColor">
    <path d="M12 3c-1.1 0-2 .9-2 2v1.5c-.8.3-1.5.9-2 1.7-.5-.3-1.1-.5-1.8-.5C4.3 7.7 3 9 3 10.8c0 .8.3 1.5.8 2.1-.5.6-.8 1.3-.8 2.1 0 1.8 1.3 3.1 3.2 3.1.6 0 1.2-.2 1.7-.5.5.8 1.2 1.4 2 1.7V21c0 1.1.9 2 2 2h2c1.1 0 2-.9 2-2v-1.7c.8-.3 1.5-.9 2-1.7.5.3 1.1.5 1.8.5 1.9 0 3.2-1.3 3.2-3.1 0-.8-.3-1.5-.8-2.1.5-.6.8-1.3.8-2.1 0-1.8-1.3-3.1-3.2-3.1-.6 0-1.2.2-1.7.5-.5-.8-1.2-1.4-2-1.7V5c0-1.1-.9-2-2-2h-2z"/>
  </symbol>
  
  <!-- User Check -->
  <symbol id="icon-user-check" viewBox="0 0 24 24" fill="none" stroke="currentColor" stroke-width="2">
    <path d="M16 21v-2a4 4 0 0 0-4-4H5a4 4 0 0 0-4 4v2"/>
    <circle cx="8.5" cy="7" r="4"/>
    <polyline points="17 11 19 13 23 9"/>
  </symbol>
  
  <!-- Heart -->
  <symbol id="icon-heart" viewBox="0 0 24 24" fill="currentColor">
    <path d="M12 21.35l-1.45-1.32C5.4 15.36 2 12.28 2 8.5 2 5.42 4.42 3 7.5 3c1.74 0 3.41.81 4.5 2.09C13.09 3.81 14.76 3 16.5 3 19.58 3 22 5.42 22 8.5c0 3.78-3.4 6.86-8.55 11.54L12 21.35z"/>
  </symbol>
  
  <!-- Lightbulb -->
  <symbol id="icon-lightbulb" viewBox="0 0 24 24" fill="currentColor">
    <path d="M9 21c0 .55.45 1 1 1h4c.55 0 1-.45 1-1v-1H9v1zm3-19C8.14 2 5 5.14 5 9c0 2.38 1.19 4.47 3 5.74V17c0 .55.45 1 1 1h6c.55 0 1-.45 1-1v-2.26c1.81-1.27 3-3.36 3-5.74 0-3.86-3.14-7-7-7zm2.85 11.1l-.85.6V16h-4v-2.3l-.85-.6C7.8 12.16 7 10.63 7 9c0-2.76 2.24-5 5-5s5 2.24 5 5c0 1.63-.8 3.16-2.15 4.1z"/>
  </symbol>
  
  <!-- Book Open -->
  <symbol id="icon-book-open" viewBox="0 0 24 24" fill="none" stroke="currentColor" stroke-width="2">
    <path d="M2 3h6a4 4 0 0 1 4 4v14a3 3 0 0 0-3-3H2V3z"/>
    <path d="M22 3h-6a4 4 0 0 0-4 4v14a3 3 0 0 1 3-3h7V3z"/>
  </symbol>
  
  <!-- Tasks -->
  <symbol id="icon-tasks" viewBox="0 0 24 24" fill="currentColor">
    <path d="M22 7h-9v2h9V7zm0 8h-9v2h9v-2zM5.54 11L2 7.46l1.41-1.41 2.12 2.12 4.24-4.24 1.41 1.41L5.54 11zm0 8L2 15.46l1.41-1.41 2.12 2.12 4.24-4.24 1.41 1.41L5.54 19z"/>
  </symbol>
  
  <!-- Users -->
  <symbol id="icon-users" viewBox="0 0 24 24" fill="none" stroke="currentColor" stroke-width="2">
    <path d="M17 21v-2a4 4 0 0 0-4-4H5a4 4 0 0 0-4 4v2"/>
    <circle cx="9" cy="7" r="4"/>
    <path d="M23 21v-2a4 4 0 0 0-3-3.87"/>
    <path d="M16 3.13a4 4 0 0 1 0 7.75"/>
  </symbol>
  
  <!-- Star -->
  <symbol id="icon-star" viewBox="0 0 24 24" fill="currentColor">
    <path d="M12 .587l3.668 7.431 8.2 1.192-5.934 5.785 1.4 8.168L12 18.896l-7.334 3.857 1.4-8.168L.132 9.21l8.2-1.192z"/>
  </symbol>
  
  <!-- Medal -->
  <symbol id="icon-medal" viewBox="0 0 24 24" fill="currentColor">
    <circle cx="12" cy="15" r="5"/>
    <path d="M9 2L7 7l5 3 5-3-2-5H9z"/>
  </symbol>
  
  <!-- Chart Bar -->
  <symbol id="icon-chart-bar" viewBox="0 0 24 24" fill="currentColor">
    <path d="M22 21H2V3h2v16h2V10h2v9h2V6h2v13h2v-7h2v7h2V8h2v13z"/>
  </symbol>
  
  <!-- Handshake -->
  <symbol id="icon-handshake" viewBox="0 0 24 24" fill="currentColor">
    <path d="M12 2L1 8v4l11 6 11-6V8L12 2zm0 16l-9-4.9V9.1L12 14l9-4.9v4L12 18z"/>
  </symbol>
  
  <!-- Comments -->
  <symbol id="icon-comments" viewBox="0 0 24 24" fill="none" stroke="currentColor" stroke-width="2">
    <path d="M21 15a2 2 0 0 1-2 2H7l-4 4V5a2 2 0 0 1 2-2h14a2 2 0 0 1 2 2z"/>
  </symbol>
  
  <!-- Rocket -->
  <symbol id="icon-rocket" viewBox="0 0 24 24" fill="currentColor">
    <path d="M12 2C6.48 2 2 6.48 2 12s4.48 10 10 10 10-4.48 10-10S17.52 2 12 2zm0 18c-4.41 0-8-3.59-8-8s3.59-8 8-8 8 3.59 8 8-3.59 8-8 8zm-1-13h2v6h-2zm0 8h2v2h-2z"/>
  </symbol>
  
  <!-- Gem -->
  <symbol id="icon-gem" viewBox="0 0 24 24" fill="currentColor">
    <path d="M6 2L2 8l10 14L22 8l-4-6H6zm0 3h12l2 3H4l2-3zm6 13L4 10h16l-8 8z"/>
  </symbol>
  
  <!-- Facebook -->
  <symbol id="icon-facebook" viewBox="0 0 24 24" fill="currentColor">
    <path d="M24 12.073c0-6.627-5.373-12-12-12s-12 5.373-12 12c0 5.99 4.388 10.954 10.125 11.854v-8.385H7.078v-3.47h3.047V9.43c0-3.007 1.792-4.669 4.533-4.669 1.312 0 2.686.235 2.686.235v2.953H15.83c-1.491 0-1.956.925-1.956 1.874v2.25h3.328l-.532 3.47h-2.796v8.385C19.612 23.027 24 18.062 24 12.073z"/>
  </symbol>
  
  <!-- Instagram -->
  <symbol id="icon-instagram" viewBox="0 0 24 24" fill="currentColor">
    <path d="M12 2.163c3.204 0 3.584.012 4.85.07 3.252.148 4.771 1.691 4.919 4.919.058 1.265.069 1.645.069 4.849 0 3.205-.012 3.584-.069 4.849-.149 3.225-1.664 4.771-4.919 4.919-1.266.058-1.644.07-4.85.07-3.204 0-3.584-.012-4.849-.07-3.26-.149-4.771-1.699-4.919-4.92-.058-1.265-.07-1.644-.07-4.849 0-3.204.013-3.583.07-4.849.149-3.227 1.664-4.771 4.919-4.919 1.266-.057 1.645-.069 4.849-.069zm0-2.163c-3.259 0-3.667.014-4.947.072-4.358.2-6.78 2.618-6.98 6.98-.059 1.281-.073 1.689-.073 4.948 0 3.259.014 3.668.072 4.948.2 4.358 2.618 6.78 6.98 6.98 1.281.058 1.689.072 4.948.072 3.259 0 3.668-.014 4.948-.072 4.354-.2 6.782-2.618 6.979-6.98.059-1.28.073-1.689.073-4.948 0-3.259-.014-3.667-.072-4.947-.196-4.354-2.617-6.78-6.979-6.98-1.281-.059-1.69-.073-4.949-.073zm0 5.838c-3.403 0-6.162 2.759-6.162 6.162s2.759 6.163 6.162 6.163 6.162-2.759 6.162-6.163c0-3.403-2.759-6.162-6.162-6.162zm0 10.162c-2.209 0-4-1.79-4-4 0-2.209 1.791-4 4-4s4 1.791 4 4c0 2.21-1.791 4-4 4zm6.406-11.845c-.796 0-1.441.645-1.441 1.44s.645 1.44 1.441 1.44c.795 0 1.439-.645 1.439-1.44s-.644-1.44-1.439-1.44z"/>
  </symbol>
  
  <!-- Twitter -->
  <symbol id="icon-twitter" viewBox="0 0 24 24" fill="currentColor">
    <path d="M23.953 4.57a10 10 0 01-2.825.775 4.958 4.958 0 002.163-2.723c-.951.555-2.005.959-3.127 1.184a4.92 4.92 0 00-8.384 4.482C7.69 8.095 4.067 6.13 1.64 3.162a4.822 4.822 0 00-.666 2.475c0 1.71.87 3.213 2.188 4.096a4.904 4.904 0 01-2.228-.616v.06a4.923 4.923 0 003.946 4.827 4.996 4.996 0 01-2.212.085 4.936 4.936 0 004.604 3.417 9.867 9.867 0 01-6.102 2.105c-.39 0-.779-.023-1.17-.067a13.995 13.995 0 007.557 2.209c9.053 0 13.998-7.496 13.998-13.985 0-.21 0-.42-.015-.63A9.935 9.935 0 0024 4.59z"/>
  </symbol>
  
  <!-- LinkedIn -->
  <symbol id="icon-linkedin" viewBox="0 0 24 24" fill="currentColor">
    <path d="M20.447 20.452h-3.554v-5.569c0-1.328-.027-3.037-1.852-3.037-1.853 0-2.136 1.445-2.136 2.939v5.667H9.351V9h3.414v1.561h.046c.477-.9 1.637-1.85 3.37-1.85 3.601 0 4.267 2.37 4.267 5.455v6.286zM5.337 7.433c-1.144 0-2.063-.926-2.063-2.065 0-1.138.92-2.063 2.063-2.063 1.14 0 2.064.925 2.064 2.063 0 1.139-.925 2.065-2.064 2.065zm1.782 13.019H3.555V9h3.564v11.452zM22.225 0H1.771C.792 0 0 .774 0 1.729v20.542C0 23.227.792 24 1.771 24h20.451C23.2 24 24 23.227 24 22.271V1.729C24 .774 23.2 0 22.222 0h.003z"/>
  </symbol>
</svg>
